<svg xmlns="http://www.w3.org/2000/svg" height="400" width="600" version="1.1">
 <rect height="400" width="600" y="0" x="0" fill="#ffffff"/>
 <path d="m300 80c-31.72 0.02435-62.14 12.61-84.61 35h81.09l10.87-19.84c2.883 6.364 5.002 13.03 6.338 19.84h70.9c-22.5-22.39-52.9-34.97-84.6-35zm-93.15 44.5c-5.034 6.212-9.435 12.91-13.14 20h86.61l10.96-20zm108.2 0c0.2195 2.523 0.3381 5.058 0.3438 7.6-0 4.159-0.3025 8.301-0.877 12.4h91.84c-3.699-7.087-8.097-13.79-13.13-20zm-125.8 29.5c-2.667 6.471-4.762 13.16-6.262 20h81.22l10.95-20zm123.4 0c-1.191 4.726-2.76 9.361-4.711 13.85 3.196 1.942 6.305 3.997 9.336 6.146h99.74c-1.506-6.837-3.607-13.53-6.279-20zm-131.3 29.5c-0.8069 5.464-1.236 10.98-1.283 16.5 0 66.27 53.73 120 120 120s120-53.73 120-120c-0.0443-5.523-0.4698-11.04-1.273-16.5h-89.37c19.7 17.12 34.85 38.97 43.84 63.84-14.7-27.4-42.4-44.3-73.6-44.3-31 0-60.6 17.2-75.5 44.3l34.96-63.84h-77.68zm118.7 42.5c19.88 0 36 16.12 36 36s-16.12 36-36 36-36-16.12-36-36 16.12-36 36-36z" fill-rule="evenodd" fill="#34972a"/>
</svg>
